<?xml version="1.0" encoding="utf-8"?>
<!-- Generator: Adobe Illustrator 22.0.1, SVG Export Plug-In . SVG Version: 6.00 Build 0)  -->
<svg version="1.1" id="Layer_1" xmlns="http://www.w3.org/2000/svg" xmlns:xlink="http://www.w3.org/1999/xlink" x="0px" y="0px"
	 viewBox="0 0 1603.8 857.7" style="enable-background:new 0 0 1603.8 857.7;" xml:space="preserve">
<style type="text/css">
	.st0{fill:none;stroke:#00AEEF;stroke-width:12;stroke-miterlimit:1;}
	.st1{fill:none;stroke:#00AEEF;stroke-width:12;stroke-linecap:round;stroke-miterlimit:7;}
	.st2{fill:none;stroke:#00AEEF;stroke-width:35;stroke-linecap:round;stroke-linejoin:round;stroke-miterlimit:10;}
	.st3{fill:none;stroke:#00AEEF;stroke-width:35;stroke-miterlimit:10;}
	.st4{fill:#00AEEF;}
	.st5{fill:none;stroke:#F1F2F2;stroke-width:35;stroke-miterlimit:10;}
	.st6{fill:none;stroke:#F1F2F2;stroke-width:12;stroke-miterlimit:1;}
	.st7{fill:none;stroke:#00AEEF;stroke-width:12;stroke-linecap:square;stroke-miterlimit:8;}
	.st8{fill:#F1F2F2;}
	.st9{fill:#FFFFFF;}
</style>
<polyline class="st0" points="39.2,820.5 207.1,42.4 39.2,437.5 207.1,831.1 39.2,42.4 207.1,431.5 39.2,820.5 "/>
<polygon class="st0" points="583.5,42.4 751.4,431.5 583.5,820.5 751.4,42.4 583.5,437.5 751.4,820.5 "/>
<polygon class="st1" points="307.9,45 475.8,312.2 307.9,579.4 475.8,45 307.9,312.2 475.8,579.4 "/>
<g id="ckpgHa.tif">
	
		<image style="overflow:visible;" width="1600" height="858" id="Layer_0_1_" xlink:href="260DDD69167CC818.png"  transform="matrix(1 0 0 1 19.6558 -1170.3866)">
	</image>
</g>
<rect x="38.2" y="42.4" class="st2" width="167.9" height="778.1"/>
<rect x="582.5" y="42.4" class="st3" width="167.9" height="778.1"/>
<rect x="306.9" y="45" class="st3" width="167.9" height="534.4"/>
<circle class="st4" cx="38.2" cy="42.4" r="36.5"/>
<rect x="851.6" y="296" class="st5" width="167.9" height="524.5"/>
<rect x="1130.1" y="296" class="st3" width="167.9" height="524.5"/>
<rect x="851.6" y="42.4" class="st3" width="167.9" height="158.6"/>
<rect x="1125.4" y="42.4" class="st2" width="442.3" height="158.6"/>
<circle class="st4" cx="206.1" cy="42.4" r="36.5"/>
<circle class="st4" cx="206.1" cy="820.5" r="36.5"/>
<circle class="st4" cx="38.2" cy="820.5" r="36.5"/>
<circle class="st4" cx="306.9" cy="579.4" r="36.5"/>
<circle class="st4" cx="474.8" cy="579.4" r="36.5"/>
<circle class="st4" cx="306.9" cy="45" r="36.5"/>
<circle class="st4" cx="474.8" cy="45" r="36.5"/>
<line class="st0" x1="852.6" y1="201" x2="1020.5" y2="42.4"/>
<line class="st0" x1="1020.5" y1="201" x2="852.6" y2="36.8"/>
<polygon class="st6" points="852.6,298.1 1020.5,559.3 852.6,820.5 1020.5,298.1 852.6,559.3 1020.5,820.5 "/>
<polygon class="st0" points="1131.1,298.1 1299,559.3 1131.1,820.5 1299,298.1 1131.1,559.3 1313.4,831.1 "/>
<polygon class="st7" points="1131.1,201 1349.9,42.4 1568.7,201 1131.1,42.4 1349.9,201 1568.7,42.4 "/>
<circle class="st4" cx="306.9" cy="312.2" r="36.5"/>
<circle class="st4" cx="474.8" cy="312.2" r="36.5"/>
<circle class="st4" cx="206.1" cy="431.5" r="36.5"/>
<circle class="st4" cx="38.2" cy="437.5" r="36.5"/>
<circle class="st4" cx="582.5" cy="42.4" r="36.5"/>
<circle class="st4" cx="750.4" cy="42.4" r="36.5"/>
<circle class="st4" cx="750.4" cy="820.5" r="36.5"/>
<circle class="st4" cx="582.5" cy="820.5" r="36.5"/>
<circle class="st4" cx="750.4" cy="431.5" r="36.5"/>
<circle class="st4" cx="582.5" cy="437.5" r="36.5"/>
<circle class="st8" cx="851.6" cy="820.5" r="36.5"/>
<circle class="st8" cx="1019.5" cy="820.5" r="36.5"/>
<circle class="st8" cx="851.6" cy="298.1" r="36.5"/>
<circle class="st8" cx="1019.5" cy="298.1" r="36.5"/>
<circle class="st8" cx="851.6" cy="559.3" r="36.5"/>
<circle class="st8" cx="1019.5" cy="559.3" r="36.5"/>
<circle class="st4" cx="1130.1" cy="820.5" r="36.5"/>
<circle class="st4" cx="1298" cy="820.5" r="36.5"/>
<circle class="st4" cx="1130.1" cy="298.1" r="36.5"/>
<circle class="st4" cx="1298" cy="298.1" r="36.5"/>
<circle class="st4" cx="1130.1" cy="559.3" r="36.5"/>
<circle class="st4" cx="1298" cy="559.3" r="36.5"/>
<circle class="st4" cx="851.6" cy="36.8" r="36.5"/>
<circle class="st4" cx="851.6" cy="201" r="36.5"/>
<circle class="st4" cx="1019.5" cy="42.4" r="36.5"/>
<circle class="st4" cx="1019.5" cy="201" r="36.5"/>
<circle class="st4" cx="1130.1" cy="201" r="36.5"/>
<circle class="st4" cx="1130.1" cy="42.4" r="36.5"/>
<circle class="st4" cx="1567.7" cy="42.4" r="36.5"/>
<circle class="st4" cx="1567.7" cy="201" r="36.5"/>
<circle class="st4" cx="1348.9" cy="201" r="36.5"/>
<circle class="st4" cx="1348.9" cy="42.4" r="36.5"/>
<circle class="st4" cx="852.6" cy="121.7" r="36.5"/>
<circle class="st4" cx="1019.5" cy="121.7" r="36.5"/>
<circle class="st4" cx="936.5" cy="201" r="36.5"/>
<circle class="st4" cx="936.5" cy="42.4" r="36.5"/>
<circle class="st4" cx="1125.4" cy="121.7" r="36.5"/>
<circle class="st4" cx="1568.7" cy="118.9" r="36.5"/>
<circle class="st4" cx="1214" cy="298.1" r="36.5"/>
<circle class="st4" cx="1214" cy="820.5" r="36.5"/>
<circle class="st8" cx="935.5" cy="296" r="36.5"/>
<circle class="st8" cx="935.5" cy="820.5" r="36.5"/>
<circle class="st4" cx="666.5" cy="820.5" r="36.5"/>
<circle class="st4" cx="667.5" cy="42.4" r="36.5"/>
<circle class="st4" cx="391.8" cy="579.4" r="36.5"/>
<circle class="st4" cx="391.8" cy="45" r="36.5"/>
<circle class="st4" cx="123.1" cy="820.5" r="36.5"/>
<circle class="st4" cx="122.1" cy="42.4" r="36.5"/>
<circle class="st9" cx="851.6" cy="821.5" r="27.5"/>
<circle class="st9" cx="1019.5" cy="821.5" r="27.5"/>
<circle class="st9" cx="851.6" cy="299.1" r="27.5"/>
<circle class="st9" cx="1019.5" cy="299.1" r="27.5"/>
<circle class="st9" cx="851.6" cy="560.3" r="27.5"/>
<circle class="st9" cx="1019.5" cy="560.3" r="27.5"/>
<circle class="st9" cx="935.5" cy="297" r="27.5"/>
<circle class="st9" cx="935.5" cy="821.5" r="27.5"/>
</svg>
